<svg width="24" height="22" viewBox="0 0 24 22" fill="none" xmlns="http://www.w3.org/2000/svg">
<path d="M11.9728 21.8379C8.59373 21.8379 5.21465 21.8379 1.83557 21.8379C1.46522 21.8379 1.41177 21.7851 1.41177 21.4223C1.41177 21.1639 1.3992 20.9042 1.41555 20.6464C1.42812 20.4439 1.38474 20.3546 1.15586 20.3741C0.883596 20.3974 0.607561 20.3817 0.333412 20.3792C0.0800125 20.3766 0.00141411 20.2968 0.000785326 20.0377C-0.000472239 18.8537 0.000157849 17.6704 0.000157849 16.4864C0.000157849 12.7778 0.000157849 9.06987 0.000157849 5.36131C0.000157849 4.94066 0.0441719 4.8979 0.474888 4.8979C1.24326 4.8979 2.01163 4.88847 2.78001 4.90419C2.99065 4.90859 2.96864 4.8061 2.9787 4.66714C2.99128 4.50051 2.93783 4.45398 2.77309 4.46153C2.45995 4.47536 2.14619 4.46844 1.83243 4.46467C1.59349 4.46153 1.50483 4.37476 1.5042 4.13896C1.50169 3.38631 1.50483 2.63366 1.50232 1.881C1.50169 1.66282 1.61173 1.57164 1.81985 1.5641C1.99717 1.55718 2.24617 1.64521 2.33357 1.52574C2.42411 1.40187 2.36564 1.16671 2.36752 0.979958C2.37004 0.776233 2.36627 0.572508 2.36878 0.368154C2.37192 0.0833154 2.45115 0.00157196 2.73033 0.000943174C3.60057 -0.000314391 4.4708 -0.000314391 5.34104 0.000943174C5.64096 0.00157196 5.70762 0.0707386 5.7095 0.378842C5.71139 0.70015 5.72082 1.02209 5.70573 1.34277C5.69756 1.52008 5.74849 1.5641 5.9258 1.56284C7.22738 1.55467 8.52834 1.55844 9.82992 1.55844C10.2053 1.55844 10.2606 1.61503 10.2606 1.99544C10.2606 2.68522 10.2613 3.37499 10.2606 4.06539C10.2606 4.38985 10.1902 4.45776 9.85695 4.45838C9.55891 4.45901 9.26024 4.47348 8.96345 4.45335C8.74904 4.43889 8.79431 4.56905 8.78865 4.68789C8.78236 4.81302 8.77671 4.89916 8.9622 4.8979C10.3342 4.88847 11.7062 4.89287 13.0782 4.89287C14.764 4.89287 16.4497 4.88596 18.1349 4.90042C18.3845 4.9023 18.4229 4.82685 18.4178 4.60426C18.4027 3.97737 18.4103 3.34984 18.4128 2.72294C18.4191 1.37986 19.3296 0.462471 20.6676 0.456183C21.6083 0.451782 22.5489 0.454296 23.4902 0.455554C23.8474 0.456182 23.9404 0.590742 23.8122 0.923368C23.5562 1.58673 23.2934 2.24759 23.0438 2.91284C22.9614 3.13165 22.83 3.20711 22.5967 3.19013C22.2301 3.16246 21.8604 3.16246 21.4926 3.16183C21.2341 3.16121 21.1291 3.2769 21.1273 3.54162C21.1247 3.93335 21.1342 4.32571 21.1228 4.71744C21.1184 4.86395 21.1587 4.89916 21.3039 4.8979C22.0723 4.89036 22.8407 4.89413 23.6091 4.89413C23.9266 4.89413 23.9995 4.96455 23.9995 5.27517C24.0002 10.1828 24.0002 15.0911 23.9995 19.9987C23.9995 20.3006 23.9272 20.3722 23.6279 20.3735C23.3456 20.3748 23.0633 20.3817 22.7816 20.3704C22.6332 20.3647 22.5772 20.3987 22.5848 20.5596C22.5992 20.857 22.5892 21.1551 22.5885 21.4531C22.5879 21.7732 22.525 21.8373 22.2056 21.8373C20.1753 21.8379 18.1443 21.8373 16.114 21.8373C14.7325 21.8379 13.3524 21.8379 11.9728 21.8379ZM11.9797 19.8592C15.7273 19.8592 19.4754 19.8566 23.223 19.8648C23.4449 19.8654 23.4827 19.7994 23.4827 19.5957C23.477 14.954 23.477 10.3124 23.4827 5.67131C23.4827 5.46569 23.4431 5.40281 23.2224 5.40281C15.7348 5.40973 8.24727 5.40973 0.759726 5.40281C0.544683 5.40281 0.511356 5.46318 0.511356 5.65999C0.517016 10.3092 0.517016 14.9584 0.511356 19.6083C0.511356 19.8063 0.54657 19.8654 0.760356 19.8654C4.49973 19.8566 8.23973 19.8592 11.9797 19.8592ZM11.9734 21.3173C15.1098 21.3173 18.2455 21.3186 21.3819 21.3154C21.6058 21.3154 21.9044 21.416 22.0321 21.2714C22.1421 21.1469 22.0478 20.8526 22.0704 20.6363C22.0931 20.4188 22.0163 20.3716 21.8051 20.3716C15.4154 20.3779 9.02507 20.376 2.63538 20.3785C2.40336 20.3785 2.09337 20.276 1.96196 20.4244C1.84815 20.5533 1.94498 20.8583 1.92297 21.0828C1.90285 21.2846 1.9739 21.3217 2.16568 21.3217C5.43472 21.316 8.70439 21.3173 11.9734 21.3173ZM5.88305 3.9409C7.10603 3.9409 8.32901 3.93964 9.55262 3.94341C9.68215 3.94404 9.75006 3.93272 9.74629 3.77112C9.73497 3.26181 9.73748 2.75187 9.74503 2.24255C9.74692 2.10674 9.70353 2.07467 9.57274 2.07467C7.11106 2.07844 4.64875 2.07844 2.18706 2.07467C2.0525 2.07467 2.01603 2.11365 2.01792 2.2457C2.02484 2.73929 2.02987 3.23352 2.01603 3.72711C2.011 3.90631 2.06193 3.94655 2.23674 3.9453C3.45217 3.93712 4.66761 3.9409 5.88305 3.9409ZM18.9353 3.63342C18.9366 3.63342 18.9372 3.63342 18.9385 3.63342C18.9385 3.99371 18.9447 4.35401 18.9353 4.7143C18.9315 4.85452 18.9636 4.90167 19.1133 4.8979C19.5515 4.88658 19.9904 4.8847 20.4287 4.89853C20.5959 4.90356 20.6161 4.83943 20.6135 4.69858C20.6054 4.30748 20.6085 3.91575 20.611 3.52401C20.6142 2.98326 20.9524 2.64372 21.4882 2.63932C21.629 2.63806 21.7705 2.63366 21.9107 2.64057C22.0119 2.6456 22.0446 2.61102 22.044 2.50853C22.0396 2.03883 22.0396 1.5685 22.0434 1.0988C22.044 0.993163 22.0006 0.966126 21.9032 0.967384C21.4177 0.973043 20.9311 0.952921 20.4469 0.980588C19.5861 1.03089 18.9315 1.7565 18.9341 2.62297C18.9359 2.95999 18.9353 3.29639 18.9353 3.63342ZM4.02499 1.55907C4.36202 1.55907 4.69905 1.55404 5.03545 1.56158C5.15806 1.56473 5.1983 1.53077 5.1939 1.40502C5.18447 1.16231 5.18636 0.918967 5.19327 0.676257C5.19642 0.563705 5.17881 0.510259 5.04425 0.511516C4.37837 0.518433 3.71249 0.517174 3.04598 0.512144C2.92777 0.511515 2.87809 0.539181 2.88312 0.667453C2.89256 0.910163 2.89444 1.1535 2.8825 1.39558C2.87558 1.53958 2.93594 1.56284 3.06044 1.56033C3.38238 1.55467 3.70369 1.55907 4.02499 1.55907ZM5.88242 4.8935C6.13267 4.8935 6.38293 4.88156 6.63256 4.89727C6.81993 4.90922 6.78661 4.79164 6.77969 4.68978C6.77277 4.59106 6.8476 4.45021 6.63444 4.45524C6.13456 4.46719 5.63405 4.46719 5.13479 4.45461C4.94616 4.44958 4.982 4.56276 4.98829 4.66462C4.99458 4.76271 4.91849 4.90985 5.13291 4.89727C5.38128 4.88281 5.63216 4.8935 5.88242 4.8935ZM22.5533 2.5953C22.5703 2.60033 22.5873 2.60473 22.6049 2.60976C22.8155 2.07153 23.0262 1.53329 23.245 0.973042C23.0394 0.973042 22.8671 0.978702 22.6961 0.971156C22.5804 0.966126 22.5502 1.0114 22.5514 1.12143C22.5558 1.61314 22.5533 2.10422 22.5533 2.5953ZM3.97092 4.8935C4.08033 4.8935 4.19162 4.88218 4.29977 4.89602C4.46325 4.91802 4.48526 4.83251 4.46703 4.70549C4.45194 4.60049 4.53808 4.43952 4.30983 4.45587C4.10736 4.47033 3.90175 4.46907 3.69866 4.45587C3.53643 4.44518 3.4855 4.49423 3.48676 4.66148C3.48801 4.83314 3.51442 4.92871 3.71312 4.89602C3.79675 4.88218 3.88478 4.8935 3.97092 4.8935ZM7.78889 4.8935C7.91464 4.8935 8.03977 4.89099 8.16553 4.89413C8.24287 4.89602 8.26928 4.87024 8.27808 4.78787C8.31078 4.47662 8.29946 4.45901 7.98507 4.45901C7.82033 4.45901 7.65496 4.46907 7.49147 4.45587C7.33679 4.44329 7.29781 4.49611 7.29278 4.65016C7.28712 4.83628 7.32359 4.9306 7.53046 4.89602C7.61471 4.88218 7.70274 4.8935 7.78889 4.8935Z" fill="#344767"/>
<path d="M22.7159 12.6345C22.7159 14.6409 22.7159 16.6474 22.7159 18.6538C22.7159 19.0279 22.6517 19.0927 22.282 19.0927C19.6015 19.0927 16.921 19.0927 14.2405 19.0927C13.8651 19.0927 13.8085 19.0355 13.8085 18.6544C13.8079 18.1527 13.8029 17.6509 13.8117 17.1498C13.8142 16.9976 13.7922 16.9335 13.6155 16.9347C13.1665 16.9391 12.8484 16.6335 12.8452 16.2255C12.8421 15.8161 13.1584 15.5005 13.6004 15.4961C13.7576 15.4948 13.8129 15.4646 13.8123 15.293C13.8054 13.5217 13.8054 11.7504 13.8123 9.97913C13.8129 9.81125 13.7658 9.77352 13.6035 9.77226C13.1596 9.76912 12.8421 9.4541 12.8452 9.04602C12.8478 8.63794 13.1678 8.32983 13.613 8.33361C13.7859 8.33486 13.8148 8.27764 13.8117 8.12171C13.8016 7.60485 13.8066 7.08736 13.8085 6.56987C13.8098 6.25359 13.8846 6.17625 14.1933 6.17625C16.9053 6.17562 19.6172 6.17562 22.3292 6.17625C22.6366 6.17625 22.7159 6.25674 22.7159 6.56799C22.7159 8.59015 22.7159 10.6123 22.7159 12.6345ZM22.1965 12.642C22.1965 10.7374 22.194 8.83286 22.2003 6.92891C22.2009 6.75033 22.1632 6.6906 21.9708 6.69123C19.494 6.69814 17.0178 6.69688 14.5411 6.69248C14.3851 6.69248 14.3197 6.72141 14.3248 6.89495C14.3367 7.31812 14.3342 7.74129 14.3254 8.16446C14.3222 8.30028 14.3656 8.33046 14.4958 8.33235C14.9705 8.33989 15.2855 8.62976 15.2887 9.04539C15.2918 9.46164 14.9749 9.76597 14.5071 9.77289C14.3619 9.77541 14.3248 9.81376 14.3254 9.95775C14.3304 11.7366 14.3304 13.516 14.326 15.2949C14.3254 15.4401 14.3524 15.5086 14.5153 15.4948C14.7008 15.4785 14.8712 15.5395 15.0171 15.657C15.251 15.845 15.3415 16.1544 15.2484 16.438C15.151 16.7348 14.8976 16.9404 14.5813 16.9341C14.3851 16.9303 14.3103 16.9662 14.3222 17.1844C14.3443 17.5673 14.3405 17.9527 14.3235 18.3357C14.3147 18.5375 14.382 18.5784 14.5731 18.5777C17.0342 18.5708 19.4946 18.5708 21.9557 18.5777C22.1518 18.5784 22.2015 18.5262 22.2009 18.3319C22.1933 16.4348 22.1965 14.5384 22.1965 12.642ZM14.0751 8.84732C13.9192 8.84732 13.7626 8.84795 13.6067 8.84732C13.4702 8.84669 13.3734 8.90517 13.3678 9.04602C13.3621 9.18812 13.4583 9.25917 13.5922 9.26106C13.9123 9.26609 14.2323 9.26609 14.5524 9.26043C14.675 9.25854 14.7662 9.18938 14.7687 9.06048C14.7712 8.92026 14.6819 8.84984 14.5436 8.84795C14.3876 8.84606 14.2311 8.84795 14.0751 8.84732ZM14.0494 16.421C14.2135 16.421 14.377 16.4223 14.5411 16.4204C14.6788 16.4191 14.7693 16.35 14.7687 16.2097C14.7681 16.0808 14.6781 16.0098 14.5549 16.0079C14.2273 16.0022 13.8991 16.001 13.5715 16.0092C13.4495 16.0123 13.3627 16.089 13.3671 16.2192C13.3715 16.3474 13.4539 16.416 13.5809 16.4191C13.7368 16.4235 13.8928 16.4204 14.0494 16.421Z" fill="#344767"/>
<path d="M6.91135 7.30497C8.64302 7.30497 10.3753 7.30497 12.107 7.30497C12.4484 7.30497 12.5138 7.37225 12.5138 7.71933C12.5138 9.09825 12.5144 10.4778 12.5138 11.8567C12.5138 12.1862 12.4428 12.261 12.1177 12.261C8.63862 12.2617 5.15894 12.2617 1.67988 12.261C1.35291 12.261 1.28123 12.1856 1.28123 11.8567C1.2806 10.4696 1.2806 9.08253 1.28123 7.69544C1.28123 7.38608 1.36235 7.30497 1.66982 7.30497C3.41658 7.30434 5.16396 7.30497 6.91135 7.30497ZM6.90947 7.81868C5.27903 7.81868 3.64923 7.8212 2.01879 7.81491C1.84714 7.81428 1.79369 7.85075 1.79495 8.03247C1.80375 9.19257 1.80375 10.352 1.79495 11.5122C1.79369 11.697 1.84211 11.7473 2.02823 11.7467C5.28092 11.741 8.53298 11.741 11.7857 11.7473C11.9649 11.7479 12.0026 11.7014 12.0013 11.5285C11.9932 10.3766 11.9919 9.22464 12.002 8.07208C12.0039 7.87464 11.9687 7.81114 11.7524 7.81302C10.1383 7.82371 8.52355 7.81868 6.90947 7.81868Z" fill="#344767"/>
<path d="M6.89871 13.0119C8.63038 13.0119 10.362 13.0119 12.0937 13.0119C12.4578 13.0119 12.5125 13.0672 12.5125 13.4357C12.5125 14.8071 12.5125 16.1784 12.5125 17.5498C12.5125 17.8931 12.4433 17.9635 12.1031 17.9635C8.63164 17.9635 5.16013 17.9635 1.68925 17.9635C1.35096 17.9635 1.27928 17.8912 1.27928 17.5479C1.27865 16.169 1.27865 14.7894 1.27928 13.4105C1.27928 13.0798 1.34719 13.0125 1.67919 13.0125C3.41966 13.0112 5.15887 13.0119 6.89871 13.0119ZM6.89808 17.4498C8.52914 17.4498 10.1602 17.4473 11.7906 17.4536C11.9504 17.4542 12.0019 17.4222 12.0007 17.2518C11.9925 16.0759 11.9937 14.8995 12 13.7237C12.0007 13.5734 11.9654 13.5287 11.8089 13.5294C8.53921 13.5344 5.26954 13.5344 1.99987 13.5294C1.82947 13.5294 1.79488 13.5853 1.79551 13.7431C1.8018 14.9039 1.80369 16.064 1.79425 17.2247C1.793 17.4146 1.8477 17.4555 2.02879 17.4549C3.65231 17.4467 5.27519 17.4498 6.89808 17.4498Z" fill="#344767"/>
<path d="M19.1606 16.4342C19.0801 16.4374 19.0185 16.3776 18.9663 16.3066C18.1508 15.1961 17.334 14.0863 16.521 12.9734C16.3738 12.7716 16.4122 12.6357 16.6386 12.52C16.9794 12.3459 17.3195 12.1692 17.6685 12.0126C17.8276 11.9416 17.8634 11.868 17.8125 11.6989C17.5717 10.9066 17.3478 10.1093 17.1114 9.31514C17.0649 9.15795 17.0466 9.0171 17.2133 8.92907C17.3837 8.83852 17.4924 8.94039 17.5874 9.06866C18.3872 10.1521 19.1876 11.2348 19.9862 12.3195C20.1616 12.5578 20.1233 12.698 19.851 12.8344C19.5228 12.9992 19.1958 13.1658 18.8619 13.3192C18.711 13.3884 18.662 13.455 18.7179 13.6342C18.9644 14.4246 19.1908 15.2213 19.4215 16.0167C19.4951 16.2701 19.3907 16.443 19.1606 16.4342ZM18.098 10.6469C18.0785 10.6639 18.0583 10.6815 18.0389 10.6985C18.1558 11.0921 18.2671 11.4876 18.391 11.8787C18.4595 12.0962 18.4017 12.2339 18.1916 12.3302C17.8584 12.4829 17.5327 12.6521 17.2038 12.8131C17.1303 12.8489 17.0649 12.8715 17.1435 12.9765C17.5874 13.5695 18.0256 14.1675 18.4652 14.7642C18.3841 14.3454 18.269 13.9423 18.1527 13.5393C18.0464 13.1715 18.0565 13.1513 18.3991 12.9809C18.7431 12.8099 19.0858 12.6364 19.4379 12.4603C18.9795 11.8391 18.5387 11.243 18.098 10.6469Z" fill="#344767"/>
<path d="M3.73825 9.88467C3.43266 9.88467 3.12645 9.88718 2.82086 9.88404C2.57689 9.88152 2.49452 9.80104 2.492 9.56399C2.48886 9.28984 2.49326 9.01506 2.49075 8.74091C2.48886 8.53467 2.59575 8.43595 2.79319 8.43532C3.42009 8.43281 4.04761 8.43344 4.67451 8.43469C4.87195 8.43532 4.98324 8.53153 4.9845 8.73525C4.98639 9.01758 4.98639 9.2999 4.9845 9.58222C4.98324 9.78217 4.88201 9.88592 4.67891 9.8853C4.36515 9.88404 4.05201 9.88467 3.73825 9.88467ZM3.71813 9.36907C3.91368 9.36907 4.11112 9.35649 4.30541 9.37284C4.4777 9.3873 4.47519 9.29361 4.46827 9.1754C4.46198 9.06473 4.50851 8.94024 4.3073 8.94841C3.93946 8.96287 3.57099 8.96287 3.20316 8.94841C3.0271 8.94149 3.00258 9.01003 3.00069 9.16345C2.9988 9.31939 3.0271 9.39044 3.20127 9.37347C3.37167 9.35649 3.54521 9.36907 3.71813 9.36907Z" fill="#344767"/>
<path d="M6.84644 14.1504C8.14047 14.1504 9.43388 14.1504 10.7279 14.1504C11.0926 14.1504 11.1492 14.2082 11.1492 14.5729C11.1492 14.8081 11.1467 15.0433 11.1498 15.2784C11.153 15.4935 11.0442 15.5953 10.8354 15.6016C10.7807 15.6035 10.7254 15.6022 10.6707 15.6022C8.09898 15.6022 5.52663 15.6022 2.95491 15.6022C2.53173 15.6022 2.49023 15.5595 2.49023 15.1281C2.49023 14.9477 2.49023 14.7672 2.49023 14.5874C2.49023 14.1963 2.53362 14.151 2.91718 14.151C4.12507 14.1504 5.33233 14.151 6.54022 14.151C6.64209 14.1504 6.74458 14.1504 6.84644 14.1504ZM6.82569 15.0873C8.01598 15.0873 9.20689 15.0854 10.3972 15.0898C10.5506 15.0904 10.6323 15.0829 10.6361 14.8848C10.6393 14.6754 10.5493 14.6672 10.3884 14.6672C7.99963 14.6704 5.61025 14.6717 3.22151 14.6654C3.05048 14.6647 3.00018 14.6999 2.99829 14.8798C2.99641 15.0709 3.06934 15.0904 3.23031 15.0898C4.42877 15.0848 5.62723 15.0873 6.82569 15.0873Z" fill="#344767"/>
</svg>
